{
	"asset":{
		"generator":"Khronos glTF Blender I/O v4.3.47",
		"version":"2.0"
	},
	"scene":0,
	"scenes":[
		{
			"name":"Scene",
			"nodes":[
				0
			]
		}
	],
	"nodes":[
		{
			"mesh":0,
			"name":"Cube.019",
			"translation":[
				1.8713371753692627,
				0.17915771901607513,
				-2.3933916091918945
			]
		}
	],
	"materials":[
		{
			"doubleSided":true,
			"name":"Material.025",
			"pbrMetallicRoughness":{
				"baseColorFactor":[
					0.15034858882427216,
					0.15034858882427216,
					0.15034858882427216,
					1
				],
				"metallicFactor":0
			}
		},
		{
			"doubleSided":true,
			"name":"Material.021",
			"pbrMetallicRoughness":{
				"baseColorFactor":[
					0.39048492908477783,
					0.45158565044403076,
					0.45158565044403076,
					1
				],
				"metallicFactor":0,
				"roughnessFactor":0.5
			}
		},
		{
			"doubleSided":true,
			"name":"Material.005",
			"pbrMetallicRoughness":{
				"baseColorFactor":[
					0,
					0,
					0,
					1
				],
				"metallicFactor":0.7952755689620972,
				"roughnessFactor":0
			}
		},
		{
			"doubleSided":true,
			"name":"Material.006",
			"pbrMetallicRoughness":{
				"baseColorFactor":[
					0,
					0,
					0,
					1
				],
				"metallicFactor":0
			}
		},
		{
			"doubleSided":true,
			"name":"Material.009",
			"pbrMetallicRoughness":{
				"baseColorFactor":[
					0.27736517786979675,
					0.06332125514745712,
					0.006601064465939999,
					1
				],
				"metallicFactor":0,
				"roughnessFactor":0.5
			}
		},
		{
			"doubleSided":true,
			"name":"Material.011",
			"pbrMetallicRoughness":{
				"baseColorFactor":[
					0.800891637802124,
					0.6979333162307739,
					0.3551251292228699,
					1
				],
				"metallicFactor":0,
				"roughnessFactor":0.5
			}
		},
		{
			"doubleSided":true,
			"name":"Material.012",
			"pbrMetallicRoughness":{
				"metallicFactor":0,
				"roughnessFactor":0.5
			}
		},
		{
			"doubleSided":true,
			"name":"Material.024",
			"pbrMetallicRoughness":{
				"baseColorFactor":[
					0.03389640152454376,
					0.03389640152454376,
					0.03389640152454376,
					1
				],
				"metallicFactor":0
			}
		},
		{
			"doubleSided":true,
			"name":"Material.023",
			"pbrMetallicRoughness":{
				"baseColorFactor":[
					0.07198874652385712,
					0.07198874652385712,
					0.07198874652385712,
					1
				],
				"metallicFactor":0
			}
		},
		{
			"doubleSided":true,
			"name":"Material.017",
			"pbrMetallicRoughness":{
				"baseColorFactor":[
					0.0024482174776494503,
					0.0014870144659653306,
					0.0018200305057689548,
					1
				],
				"metallicFactor":0
			}
		},
		{
			"doubleSided":true,
			"name":"Material.020",
			"pbrMetallicRoughness":{
				"baseColorFactor":[
					0,
					0,
					0,
					1
				],
				"metallicFactor":0,
				"roughnessFactor":0.5
			}
		},
		{
			"doubleSided":true,
			"name":"Material.022",
			"pbrMetallicRoughness":{
				"baseColorFactor":[
					0.021547088399529457,
					0.021547088399529457,
					0.021547088399529457,
					1
				],
				"metallicFactor":0,
				"roughnessFactor":0.5
			}
		},
		{
			"doubleSided":true,
			"name":"Material.027",
			"pbrMetallicRoughness":{
				"baseColorFactor":[
					0.02656516432762146,
					0.03583469241857529,
					0.22576943039894104,
					1
				],
				"metallicFactor":0,
				"roughnessFactor":0.5
			}
		}
	],
	"meshes":[
		{
			"name":"Cube.019",
			"primitives":[
				{
					"attributes":{
						"POSITION":0,
						"NORMAL":1,
						"TEXCOORD_0":2
					},
					"indices":3,
					"material":0
				},
				{
					"attributes":{
						"POSITION":4,
						"NORMAL":5,
						"TEXCOORD_0":6
					},
					"indices":7,
					"material":1
				},
				{
					"attributes":{
						"POSITION":8,
						"NORMAL":9,
						"TEXCOORD_0":10
					},
					"indices":11,
					"material":2
				},
				{
					"attributes":{
						"POSITION":12,
						"NORMAL":13,
						"TEXCOORD_0":14
					},
					"indices":15,
					"material":3
				},
				{
					"attributes":{
						"POSITION":16,
						"NORMAL":17,
						"TEXCOORD_0":18
					},
					"indices":19,
					"material":4
				},
				{
					"attributes":{
						"POSITION":20,
						"NORMAL":21,
						"TEXCOORD_0":22
					},
					"indices":23,
					"material":5
				},
				{
					"attributes":{
						"POSITION":24,
						"NORMAL":25,
						"TEXCOORD_0":26
					},
					"indices":27,
					"material":6
				},
				{
					"attributes":{
						"POSITION":28,
						"NORMAL":29,
						"TEXCOORD_0":30
					},
					"indices":31,
					"material":7
				},
				{
					"attributes":{
						"POSITION":32,
						"NORMAL":33,
						"TEXCOORD_0":34
					},
					"indices":35,
					"material":8
				},
				{
					"attributes":{
						"POSITION":36,
						"NORMAL":37,
						"TEXCOORD_0":38
					},
					"indices":39,
					"material":9
				},
				{
					"attributes":{
						"POSITION":40,
						"NORMAL":41,
						"TEXCOORD_0":42
					},
					"indices":43,
					"material":10
				},
				{
					"attributes":{
						"POSITION":44,
						"NORMAL":45,
						"TEXCOORD_0":46
					},
					"indices":47,
					"material":11
				},
				{
					"attributes":{
						"POSITION":48,
						"NORMAL":49,
						"TEXCOORD_0":50
					},
					"indices":51,
					"material":12
				}
			]
		}
	],
	"accessors":[
		{
			"bufferView":0,
			"componentType":5126,
			"count":167,
			"max":[
				0.8383280038833618,
				1.2062526941299438,
				1.8572925329208374
			],
			"min":[
				-0.8383280038833618,
				0.34285470843315125,
				-1.812410593032837
			],
			"type":"VEC3"
		},
		{
			"bufferView":1,
			"componentType":5126,
			"count":167,
			"type":"VEC3"
		},
		{
			"bufferView":2,
			"componentType":5126,
			"count":167,
			"type":"VEC2"
		},
		{
			"bufferView":3,
			"componentType":5123,
			"count":297,
			"type":"SCALAR"
		},
		{
			"bufferView":4,
			"componentType":5126,
			"count":2628,
			"max":[
				0.8382261395454407,
				1.2062526941299438,
				1.885867714881897
			],
			"min":[
				-0.8382261395454407,
				-0.04236455261707306,
				-1.9092907905578613
			],
			"type":"VEC3"
		},
		{
			"bufferView":5,
			"componentType":5126,
			"count":2628,
			"type":"VEC3"
		},
		{
			"bufferView":6,
			"componentType":5126,
			"count":2628,
			"type":"VEC2"
		},
		{
			"bufferView":7,
			"componentType":5123,
			"count":4518,
			"type":"SCALAR"
		},
		{
			"bufferView":8,
			"componentType":5126,
			"count":28,
			"max":[
				0.7875109314918518,
				1.1258065700531006,
				0.6083198189735413
			],
			"min":[
				-0.7875109314918518,
				0.7094303369522095,
				-1.741599202156067
			],
			"type":"VEC3"
		},
		{
			"bufferView":9,
			"componentType":5126,
			"count":28,
			"type":"VEC3"
		},
		{
			"bufferView":10,
			"componentType":5126,
			"count":28,
			"type":"VEC2"
		},
		{
			"bufferView":11,
			"componentType":5123,
			"count":42,
			"type":"SCALAR"
		},
		{
			"bufferView":12,
			"componentType":5126,
			"count":8272,
			"max":[
				0.8476534485816956,
				0.9772397875785828,
				1.878486156463623
			],
			"min":[
				-0.8476534485816956,
				-0.15198780596256256,
				-1.8913099765777588
			],
			"type":"VEC3"
		},
		{
			"bufferView":13,
			"componentType":5126,
			"count":8272,
			"type":"VEC3"
		},
		{
			"bufferView":14,
			"componentType":5126,
			"count":8272,
			"type":"VEC2"
		},
		{
			"bufferView":15,
			"componentType":5123,
			"count":13332,
			"type":"SCALAR"
		},
		{
			"bufferView":16,
			"componentType":5126,
			"count":24,
			"max":[
				0.8132773041725159,
				0.6424776911735535,
				-1.6214522123336792
			],
			"min":[
				-0.8132773041725159,
				0.5793965458869934,
				-1.8313264846801758
			],
			"type":"VEC3"
		},
		{
			"bufferView":17,
			"componentType":5126,
			"count":24,
			"type":"VEC3"
		},
		{
			"bufferView":18,
			"componentType":5126,
			"count":24,
			"type":"VEC2"
		},
		{
			"bufferView":19,
			"componentType":5123,
			"count":36,
			"type":"SCALAR"
		},
		{
			"bufferView":20,
			"componentType":5126,
			"count":24,
			"max":[
				0.8189952969551086,
				0.6125006675720215,
				1.8574297428131104
			],
			"min":[
				-0.8189952969551086,
				0.5782629251480103,
				1.675317406654358
			],
			"type":"VEC3"
		},
		{
			"bufferView":21,
			"componentType":5126,
			"count":24,
			"type":"VEC3"
		},
		{
			"bufferView":22,
			"componentType":5126,
			"count":24,
			"type":"VEC2"
		},
		{
			"bufferView":23,
			"componentType":5123,
			"count":36,
			"type":"SCALAR"
		},
		{
			"bufferView":24,
			"componentType":5126,
			"count":384,
			"max":[
				0.8476534485816956,
				0.5238913893699646,
				1.4755241870880127
			],
			"min":[
				-0.8476534485816956,
				-0.1169864684343338,
				-1.4988598823547363
			],
			"type":"VEC3"
		},
		{
			"bufferView":25,
			"componentType":5126,
			"count":384,
			"type":"VEC3"
		},
		{
			"bufferView":26,
			"componentType":5126,
			"count":384,
			"type":"VEC2"
		},
		{
			"bufferView":27,
			"componentType":5123,
			"count":576,
			"type":"SCALAR"
		},
		{
			"bufferView":28,
			"componentType":5126,
			"count":8,
			"max":[
				0.44272610545158386,
				0.6341572403907776,
				1.7682816982269287
			],
			"min":[
				-0.44272610545158386,
				0.2302214354276657,
				1.7100532054901123
			],
			"type":"VEC3"
		},
		{
			"bufferView":29,
			"componentType":5126,
			"count":8,
			"type":"VEC3"
		},
		{
			"bufferView":30,
			"componentType":5126,
			"count":8,
			"type":"VEC2"
		},
		{
			"bufferView":31,
			"componentType":5123,
			"count":12,
			"type":"SCALAR"
		},
		{
			"bufferView":32,
			"componentType":5126,
			"count":608,
			"max":[
				1.020119547843933,
				0.9635148048400879,
				0.5339096188545227
			],
			"min":[
				-1.020119547843933,
				0.7522770166397095,
				0.2733492851257324
			],
			"type":"VEC3"
		},
		{
			"bufferView":33,
			"componentType":5126,
			"count":608,
			"type":"VEC3"
		},
		{
			"bufferView":34,
			"componentType":5126,
			"count":608,
			"type":"VEC2"
		},
		{
			"bufferView":35,
			"componentType":5123,
			"count":1176,
			"type":"SCALAR"
		},
		{
			"bufferView":36,
			"componentType":5126,
			"count":891,
			"max":[
				0.8558319211006165,
				0.6150561571121216,
				1.9029587507247925
			],
			"min":[
				-0.8558319211006165,
				0.1714659482240677,
				-1.9092907905578613
			],
			"type":"VEC3"
		},
		{
			"bufferView":37,
			"componentType":5126,
			"count":891,
			"type":"VEC3"
		},
		{
			"bufferView":38,
			"componentType":5126,
			"count":891,
			"type":"VEC2"
		},
		{
			"bufferView":39,
			"componentType":5123,
			"count":1554,
			"type":"SCALAR"
		},
		{
			"bufferView":40,
			"componentType":5126,
			"count":1432,
			"max":[
				0.8024747967720032,
				0.44926947355270386,
				1.400902271270752
			],
			"min":[
				-0.8024747967720032,
				-0.04236455261707306,
				-1.4242379665374756
			],
			"type":"VEC3"
		},
		{
			"bufferView":41,
			"componentType":5126,
			"count":1432,
			"type":"VEC3"
		},
		{
			"bufferView":42,
			"componentType":5126,
			"count":1432,
			"type":"VEC2"
		},
		{
			"bufferView":43,
			"componentType":5123,
			"count":2556,
			"type":"SCALAR"
		},
		{
			"bufferView":44,
			"componentType":5126,
			"count":24,
			"max":[
				0.8274914026260376,
				1.0981990098953247,
				0.5223875641822815
			],
			"min":[
				-0.8274914026260376,
				0.21970228850841522,
				-1.0447648763656616
			],
			"type":"VEC3"
		},
		{
			"bufferView":45,
			"componentType":5126,
			"count":24,
			"type":"VEC3"
		},
		{
			"bufferView":46,
			"componentType":5126,
			"count":24,
			"type":"VEC2"
		},
		{
			"bufferView":47,
			"componentType":5123,
			"count":36,
			"type":"SCALAR"
		},
		{
			"bufferView":48,
			"componentType":5126,
			"count":33,
			"max":[
				-0.21812695264816284,
				1.2062526941299438,
				1.8572925329208374
			],
			"min":[
				-0.27454182505607605,
				0.6735907793045044,
				-0.7843173146247864
			],
			"type":"VEC3"
		},
		{
			"bufferView":49,
			"componentType":5126,
			"count":33,
			"type":"VEC3"
		},
		{
			"bufferView":50,
			"componentType":5126,
			"count":33,
			"type":"VEC2"
		},
		{
			"bufferView":51,
			"componentType":5123,
			"count":51,
			"type":"SCALAR"
		}
	],
	"bufferViews":[
		{
			"buffer":0,
			"byteLength":2004,
			"byteOffset":0,
			"target":34962
		},
		{
			"buffer":0,
			"byteLength":2004,
			"byteOffset":2004,
			"target":34962
		},
		{
			"buffer":0,
			"byteLength":1336,
			"byteOffset":4008,
			"target":34962
		},
		{
			"buffer":0,
			"byteLength":594,
			"byteOffset":5344,
			"target":34963
		},
		{
			"buffer":0,
			"byteLength":31536,
			"byteOffset":5940,
			"target":34962
		},
		{
			"buffer":0,
			"byteLength":31536,
			"byteOffset":37476,
			"target":34962
		},
		{
			"buffer":0,
			"byteLength":21024,
			"byteOffset":69012,
			"target":34962
		},
		{
			"buffer":0,
			"byteLength":9036,
			"byteOffset":90036,
			"target":34963
		},
		{
			"buffer":0,
			"byteLength":336,
			"byteOffset":99072,
			"target":34962
		},
		{
			"buffer":0,
			"byteLength":336,
			"byteOffset":99408,
			"target":34962
		},
		{
			"buffer":0,
			"byteLength":224,
			"byteOffset":99744,
			"target":34962
		},
		{
			"buffer":0,
			"byteLength":84,
			"byteOffset":99968,
			"target":34963
		},
		{
			"buffer":0,
			"byteLength":99264,
			"byteOffset":100052,
			"target":34962
		},
		{
			"buffer":0,
			"byteLength":99264,
			"byteOffset":199316,
			"target":34962
		},
		{
			"buffer":0,
			"byteLength":66176,
			"byteOffset":298580,
			"target":34962
		},
		{
			"buffer":0,
			"byteLength":26664,
			"byteOffset":364756,
			"target":34963
		},
		{
			"buffer":0,
			"byteLength":288,
			"byteOffset":391420,
			"target":34962
		},
		{
			"buffer":0,
			"byteLength":288,
			"byteOffset":391708,
			"target":34962
		},
		{
			"buffer":0,
			"byteLength":192,
			"byteOffset":391996,
			"target":34962
		},
		{
			"buffer":0,
			"byteLength":72,
			"byteOffset":392188,
			"target":34963
		},
		{
			"buffer":0,
			"byteLength":288,
			"byteOffset":392260,
			"target":34962
		},
		{
			"buffer":0,
			"byteLength":288,
			"byteOffset":392548,
			"target":34962
		},
		{
			"buffer":0,
			"byteLength":192,
			"byteOffset":392836,
			"target":34962
		},
		{
			"buffer":0,
			"byteLength":72,
			"byteOffset":393028,
			"target":34963
		},
		{
			"buffer":0,
			"byteLength":4608,
			"byteOffset":393100,
			"target":34962
		},
		{
			"buffer":0,
			"byteLength":4608,
			"byteOffset":397708,
			"target":34962
		},
		{
			"buffer":0,
			"byteLength":3072,
			"byteOffset":402316,
			"target":34962
		},
		{
			"buffer":0,
			"byteLength":1152,
			"byteOffset":405388,
			"target":34963
		},
		{
			"buffer":0,
			"byteLength":96,
			"byteOffset":406540,
			"target":34962
		},
		{
			"buffer":0,
			"byteLength":96,
			"byteOffset":406636,
			"target":34962
		},
		{
			"buffer":0,
			"byteLength":64,
			"byteOffset":406732,
			"target":34962
		},
		{
			"buffer":0,
			"byteLength":24,
			"byteOffset":406796,
			"target":34963
		},
		{
			"buffer":0,
			"byteLength":7296,
			"byteOffset":406820,
			"target":34962
		},
		{
			"buffer":0,
			"byteLength":7296,
			"byteOffset":414116,
			"target":34962
		},
		{
			"buffer":0,
			"byteLength":4864,
			"byteOffset":421412,
			"target":34962
		},
		{
			"buffer":0,
			"byteLength":2352,
			"byteOffset":426276,
			"target":34963
		},
		{
			"buffer":0,
			"byteLength":10692,
			"byteOffset":428628,
			"target":34962
		},
		{
			"buffer":0,
			"byteLength":10692,
			"byteOffset":439320,
			"target":34962
		},
		{
			"buffer":0,
			"byteLength":7128,
			"byteOffset":450012,
			"target":34962
		},
		{
			"buffer":0,
			"byteLength":3108,
			"byteOffset":457140,
			"target":34963
		},
		{
			"buffer":0,
			"byteLength":17184,
			"byteOffset":460248,
			"target":34962
		},
		{
			"buffer":0,
			"byteLength":17184,
			"byteOffset":477432,
			"target":34962
		},
		{
			"buffer":0,
			"byteLength":11456,
			"byteOffset":494616,
			"target":34962
		},
		{
			"buffer":0,
			"byteLength":5112,
			"byteOffset":506072,
			"target":34963
		},
		{
			"buffer":0,
			"byteLength":288,
			"byteOffset":511184,
			"target":34962
		},
		{
			"buffer":0,
			"byteLength":288,
			"byteOffset":511472,
			"target":34962
		},
		{
			"buffer":0,
			"byteLength":192,
			"byteOffset":511760,
			"target":34962
		},
		{
			"buffer":0,
			"byteLength":72,
			"byteOffset":511952,
			"target":34963
		},
		{
			"buffer":0,
			"byteLength":396,
			"byteOffset":512024,
			"target":34962
		},
		{
			"buffer":0,
			"byteLength":396,
			"byteOffset":512420,
			"target":34962
		},
		{
			"buffer":0,
			"byteLength":264,
			"byteOffset":512816,
			"target":34962
		},
		{
			"buffer":0,
			"byteLength":102,
			"byteOffset":513080,
			"target":34963
		}
	],
	"buffers":[
		{
			"byteLength":513184,
			"uri":"vehicle.bin"
		}
	]
}
